<?xml version="1.0" standalone="no"?><!DOCTYPE svg PUBLIC "-//W3C//DTD SVG 1.1//EN" "http://www.w3.org/Graphics/SVG/1.1/DTD/svg11.dtd"><svg t="1748083141567" class="icon" viewBox="0 0 1058 1024" version="1.1" xmlns="http://www.w3.org/2000/svg" p-id="2770" xmlns:xlink="http://www.w3.org/1999/xlink" width="206.640625" height="200"><path d="M572.103593 527.105446v219.436836a141.786395 141.786395 0 0 1 89.111141 89.116927h251.580023a44.998147 44.998147 0 0 1 6.103503 89.579751l-6.103503 0.410758h-251.580023c-18.796475 56.04809-71.737853 96.423774-134.103502 96.423774-62.37722 0-115.318599-40.381469-134.115074-96.423774H141.416136a44.998147 44.998147 0 0 1-6.103503-89.579752l6.103503-0.410757H392.996158a141.786395 141.786395 0 0 1 89.111141-89.111141v-219.436836H572.109379z m-44.998147 302.120498a51.431412 51.431412 0 1 0 0 102.857039 51.431412 51.431412 0 0 0 0-102.857039zM527.105446 0c116.788068 0 217.678102 74.584226 254.814012 180.513266l3.980293 12.39792 11.802034 0.266125c138.384633 6.79774 249.381605 117.788927 256.179345 256.173559l0.329763 13.479774c0 144.586486-113.658215 262.624181-256.503322 269.647548l-13.479774 0.329763h-64.274803a44.998147 44.998147 0 0 1-6.109288-89.585537l6.103503-0.404972h64.286373c99.403209 0 179.981017-80.589379 179.981017-179.992587 0-95.723751-74.723073-173.99322-169.012068-179.65704l-10.968949-0.329763h-34.422599a44.998147 44.998147 0 0 1-44.546893-38.622734c-12.583051-87.994576-88.33591-154.219028-178.158644-154.219028-89.822734 0-165.575593 66.224452-178.164429 154.219028a45.009718 45.009718 0 0 1-37.940068 38.142554l-6.606825 0.485966h-34.411028c-99.403209 0-179.986802 80.577808-179.986802 179.981017 0 95.723751 74.723073 173.99322 169.017853 179.662825l10.968949 0.323977h64.274802a44.998147 44.998147 0 0 1 6.109288 89.585537l-6.103502 0.410757H269.983096C120.878282 732.807955 0 611.929672 0 462.824859c0-144.586486 113.658215-262.629966 256.509107-269.653334l11.738396-0.260339C300.454328 84.598599 398.202938 6.005153 513.700881 0.329763L527.105446 0z" fill="#505766" p-id="2771"></path><path d="M655.666621 353.546124H398.550056C338.19191 353.546124 289.265537 402.472497 289.265537 462.830644c0 60.346576 48.926373 109.272949 109.278734 109.272949h257.12235c60.352362 0 109.28452-48.926373 109.28452-109.278734 0-60.352362-48.932158-109.278734-109.28452-109.278735zM398.550056 443.542418h257.122351a19.282441 19.282441 0 0 1 0 38.564881H398.550056a19.282441 19.282441 0 1 1 0-38.564881z" fill="#505766" p-id="2772"></path></svg>